<svg class="img-svg" version="1.1" id="Layer_1" xmlns="http://www.w3.org/2000/svg" xmlns:xlink="http://www.w3.org/1999/xlink" x="0px" y="0px"
	 viewBox="0 0 50 46" style="enable-background:new 0 0 50 46;" xml:space="preserve">
	<path d="M20,6h10v1c0,2.8,2.2,5,5,5c2.8,0,5-2.2,5-5V6h6c1.7,0,3,1.3,3,3v34c0,1.7-1.3,3-3,3H4c-1.7,0-3-1.3-3-3V9
		c0-1.7,1.3-3,3-3h6v1c0,2.8,2.2,5,5,5c2.8,0,5-2.2,5-5V6z"/>
	<path d="M13,4c0-1.1,0.9-2,2-2c1.1,0,2,0.9,2,2v3c0,1.1-0.9,2-2,2c-1.1,0-2-0.9-2-2V4z"/>
	<path d="M33,4c0-1.1,0.9-2,2-2c1.1,0,2,0.9,2,2v3c0,1.1-0.9,2-2,2c-1.1,0-2-0.9-2-2V4z"/>
	<path d="M20,22.7c-2.6,1-3.5,4.7-2.2,8.3c1.4,3.6,7,6.2,7,6.2s5.9-2.6,7.3-6.2c1.4-3.6,0.4-7.3-2.2-8.3
		c-1.6-0.6-3.5,0-5,1.4C25,24.2,21.6,22.1,20,22.7z"/>
</svg>
