<svg class="img-svg" version="1.1" id="Layer_1" xmlns="http://www.w3.org/2000/svg" xmlns:xlink="http://www.w3.org/1999/xlink" x="0px" y="0px"
	 viewBox="0 0 52 56" style="enable-background:new 0 0 52 56;" xml:space="preserve">
   <path d="M15,42H9c0,2.2-1.8,4-4,4c-2.2,0-4-1.8-4-4v-3.5C1,36.6,2.6,35,4.5,35h43c1.9,0,3.5,1.6,3.5,3.5V42
	c0,2.2-1.8,4-4,4c-2.2,0-4-1.8-4-4h-6c0,2.2-1.8,4-4,4c-2.2,0-4-1.8-4-4h-6c0,2.2-1.8,4-4,4C16.8,46,15,44.2,15,42z"/>
  <circle cx="19" cy="41" r="1"/>
  <circle cx="47" cy="41" r="1"/>
  <circle cx="33" cy="26" r="1"/>
  <path d="M15,26H8v-3.5c0-1.9,1.6-3.5,3.5-3.5h29c1.9,0,3.5,1.6,3.5,3.5V26h-7c0,2.2-1.8,4-4,4c-2.2,0-4-1.8-4-4h-6
  	c0,2.2-1.8,4-4,4C16.8,30,15,28.2,15,26z"/>
  <polyline points="47,47 47,55 5,55 5,47 "/>
  <polyline points="41,27 41,35 11,35 11,27 "/>
  <path d="M20.9,1.2c-2.6,1-3.6,4.7-2.2,8.3c1.4,3.6,7.2,6.2,7.2,6.2s6.1-2.6,7.5-6.2c1.4-3.6,0.4-7.3-2.2-8.3
  	c-1.7-0.6-3.6,0-5.1,1.4C26,2.7,22.5,0.6,20.9,1.2z"/>
</svg>
