<svg class="img-svg" version="1.1" id="Layer_1" xmlns="http://www.w3.org/2000/svg" xmlns:xlink="http://www.w3.org/1999/xlink" x="0px" y="0px"
	 viewBox="0 0 56.8 51" style="enable-background:new 0 0 56.8 51;" xml:space="preserve">
   <path d="M13.6,18C13.3,9.4,17.9,2.2,24.3,1.6C29.8,1,34.9,5.3,37.2,11.7c6.3-2.6,13-1.6,16.2,2.8
	c4,5.6,1.2,14.5-6.2,19.9c-3.7,2.7-9.9,4.7-15,5.9 M5,19.6c-4.7,3.5-4.6,11.5,0.1,17.8c4.5,6,17.3,12.1,17.3,12.1
	s10.9-8.9,13.8-15.9c3.1-7.3,1.2-15-4.2-17.3c-4.3-1.8-9.6,0.4-13.1,5.1C14.4,17.6,8.7,16.7,5,19.6z"/>
</svg>
