<svg class="img-svg" version="1.1" id="Layer_1" xmlns="http://www.w3.org/2000/svg" xmlns:xlink="http://www.w3.org/1999/xlink" x="0px" y="0px"
	 viewBox="0 0 54 51.3" style="enable-background:new 0 0 54 51.3;" xml:space="preserve">
   <path d="M24.6,3.2c1.5-1.4,3.4-2,5-1.4c2.6,1,3.5,4.7,2.2,8.3c-1.4,3.6-7.3,6.2-7.3,6.2s-5.6-2.6-7-6.2
	c-1.4-3.6-0.4-7.3,2.2-8.3C21.3,1.1,24.6,3.2,24.6,3.2z M28.4,47.6c2.4,1.4,5.1,2.2,8.1,2.2c8.8,0,16-7.2,16-16c0-8.8-7.2-16-16-16
	s-16,7.2-16,16c0,3.2,1,6.2,2.6,8.7 M21.7,21c-1.7-0.7-3.7-1.1-5.7-1.1c-8,0-14.5,6.5-14.5,14.5S8,48.8,16,48.8s14.5-6.5,14.5-14.5
	c0-3.3-1.1-6.4-3-8.8"/>
</svg>
